<?xml version="1.0" encoding="utf-8"?>
<!-- Generator: Adobe Illustrator 23.0.4, SVG Export Plug-In . SVG Version: 6.00 Build 0)  -->
<svg version="1.1" id="Layer_1" focusable="false" xmlns="http://www.w3.org/2000/svg" xmlns:xlink="http://www.w3.org/1999/xlink"
	 x="0px" y="0px" viewBox="0 0 384 512" style="enable-background:new 0 0 384 512;" xml:space="preserve">
<style type="text/css">
	.st0{fill:url(#SVGID_1_);}
</style>
<linearGradient id="SVGID_1_" gradientUnits="userSpaceOnUse" x1="0" y1="255.9997" x2="384" y2="255.9997">
	<stop  offset="0" style="stop-color:#E89274"/>
	<stop  offset="1" style="stop-color:#000000"/>
</linearGradient>
<path class="st0" d="M216,23.9c0-23.8-30.6-32.8-44.1-13C48,191.9,224,200,224,288c0,35.6-29.1,64.5-64.9,64
	C124,351.5,96,322.2,96,287v-85.5c0-21.7-26.5-32.2-41.4-16.5C27.8,213.2,0,261.3,0,320c0,105.9,86.1,192,192,192s192-86.1,192-192
	C384,149.7,216,127,216,23.9L216,23.9z"/>
</svg>
